<svg xmlns="http://www.w3.org/2000/svg" width="70" height="69.656" viewBox="0 0 70 69.656">
  <metadata><?xpacket begin="﻿" id="W5M0MpCehiHzreSzNTczkc9d"?>
<x:xmpmeta xmlns:x="adobe:ns:meta/" x:xmptk="Adobe XMP Core 5.6-c140 79.160451, 2017/05/06-01:08:21        ">
   <rdf:RDF xmlns:rdf="http://www.w3.org/1999/02/22-rdf-syntax-ns#">
      <rdf:Description rdf:about=""/>
   </rdf:RDF>
</x:xmpmeta>
                                                                                                    
                                                                                                    
                                                                                                    
                                                                                                    
                                                                                                    
                                                                                                    
                                                                                                    
                                                                                                    
                                                                                                    
                                                                                                    
                                                                                                    
                                                                                                    
                                                                                                    
                                                                                                    
                                                                                                    
                                                                                                    
                                                                                                    
                                                                                                    
                                                                                                    
                                                                                                    
                           
<?xpacket end="w"?></metadata>
<defs>
    <style>
      .cls-1 {
        fill-rule: evenodd;
        fill: #48c3cf;
      }
    </style>
  </defs>
  <path id="inst" class="cls-1" d="M35,42.335a6.994,6.994,0,1,0-7-7.006A7.016,7.016,0,0,0,35,42.335Zm15.3-15.574V20.015l-0.88,0-5.869.018,0.024,6.747ZM35,0.339A34.991,34.991,0,1,0,69.989,35.33,35.03,35.03,0,0,0,35,.339ZM54.9,31.247V47.54a7.7,7.7,0,0,1-7.691,7.693H22.79A7.7,7.7,0,0,1,15.1,47.54V23.123a7.7,7.7,0,0,1,7.691-7.691H47.206A7.7,7.7,0,0,1,54.9,23.123v8.124ZM45.882,35.33a10.884,10.884,0,1,1-20.967-4.083H18.975V47.54a3.813,3.813,0,0,0,3.814,3.811H47.2a3.813,3.813,0,0,0,3.814-3.811V31.247H45.076A10.789,10.789,0,0,1,45.882,35.33Z" transform="translate(0 -0.344)"/>
</svg>
