<svg xmlns="http://www.w3.org/2000/svg" width="107" height="8.844" viewBox="0 0 107 8.844">
  <metadata><?xpacket begin="﻿" id="W5M0MpCehiHzreSzNTczkc9d"?>
<x:xmpmeta xmlns:x="adobe:ns:meta/" x:xmptk="Adobe XMP Core 5.6-c138 79.159824, 2016/09/14-01:09:01        ">
   <rdf:RDF xmlns:rdf="http://www.w3.org/1999/02/22-rdf-syntax-ns#">
      <rdf:Description rdf:about=""/>
   </rdf:RDF>
</x:xmpmeta>





















<?xpacket end="w"?></metadata>
<defs>
    <style>
      .cls-1 {
        fill: #000;
        fill-rule: evenodd;
      }
    </style>
  </defs>
  <path id="logo.svg" class="cls-1" d="M264.184,318.276a0.2,0.2,0,0,0-.224.225v8.275a0.2,0.2,0,0,0,.224.224h1.409a0.2,0.2,0,0,0,.224-0.224v-3.313h4.29a0.2,0.2,0,0,0,.224-0.225v-1.312a0.2,0.2,0,0,0-.224-0.224h-4.29v-1.665h4.738a0.2,0.2,0,0,0,.224-0.224V318.5a0.2,0.2,0,0,0-.224-0.225h-6.371Zm8.272,4.882a3.914,3.914,0,1,0,7.827,0V318.5a0.2,0.2,0,0,0-.224-0.225h-1.408a0.2,0.2,0,0,0-.224.225v4.641a2.063,2.063,0,1,1-4.114,0V318.5a0.2,0.2,0,0,0-.224-0.225H272.68a0.2,0.2,0,0,0-.224.225v4.657Zm9.328-4.882a0.2,0.2,0,0,0-.224.225v1.312a0.2,0.2,0,0,0,.224.224h2.785v6.739a0.2,0.2,0,0,0,.224.224H286.2a0.2,0.2,0,0,0,.224-0.224v-6.739h2.785a0.2,0.2,0,0,0,.224-0.224V318.5a0.2,0.2,0,0,0-.224-0.225h-7.427Zm8.928,4.882a3.914,3.914,0,1,0,7.827,0V318.5a0.2,0.2,0,0,0-.224-0.225h-1.408a0.2,0.2,0,0,0-.225.225v4.641a2.063,2.063,0,1,1-4.113,0V318.5a0.2,0.2,0,0,0-.224-0.225h-1.409a0.2,0.2,0,0,0-.224.225v4.657Zm9.968-4.882a0.2,0.2,0,0,0-.224.225v8.275a0.2,0.2,0,0,0,.224.224h1.409a0.2,0.2,0,0,0,.224-0.224v-2.1h2.241a1.658,1.658,0,0,0,.256-0.016l1.072,2.177a0.3,0.3,0,0,0,.288.16h1.569a0.148,0.148,0,0,0,.144-0.224l-1.377-2.641a3.08,3.08,0,0,0,1.537-2.673,3.253,3.253,0,0,0-3.425-3.186H300.68Zm1.633,4.642v-2.881h2.305a1.4,1.4,0,0,1,1.568,1.425,1.426,1.426,0,0,1-1.568,1.456h-2.305Zm7.711-4.642a0.229,0.229,0,0,0-.224.225v8.275a0.2,0.2,0,0,0,.224.224h6.611a0.2,0.2,0,0,0,.224-0.224v-1.3a0.2,0.2,0,0,0-.224-0.224h-4.978v-1.888h4.257a0.2,0.2,0,0,0,.225-0.225v-1.28a0.2,0.2,0,0,0-.225-0.224h-4.257v-1.633h4.85a0.2,0.2,0,0,0,.224-0.224V318.5a0.2,0.2,0,0,0-.224-0.225h-6.483Zm20.275,0a0.287,0.287,0,0,0-.288.177l-1.217,2.929-1.264,3.233h-0.064l-1.281-3.233-1.28-2.929a0.274,0.274,0,0,0-.257-0.177h-1.872a0.2,0.2,0,0,0-.224.225v8.275a0.2,0.2,0,0,0,.224.224h1.344a0.2,0.2,0,0,0,.224-0.224v-3.169l-0.08-2.4,0.1-.016,1.313,3.313,0.944,2.337a0.26,0.26,0,0,0,.256.16h1.089a0.26,0.26,0,0,0,.256-0.16l0.992-2.337,1.281-3.3,0.1,0.016-0.08,2.385v3.169a0.2,0.2,0,0,0,.224.224h1.409a0.2,0.2,0,0,0,.224-0.224V318.5a0.2,0.2,0,0,0-.224-0.225H330.3Zm11.2,8.5a0.347,0.347,0,0,0,.336.224h1.521a0.183,0.183,0,0,0,.176-0.256l-3.6-8.339a0.2,0.2,0,0,0-.208-0.129H337.9a0.2,0.2,0,0,0-.208.129l-3.778,8.371c-0.048.144,0,.224,0.16,0.224h1.585a0.273,0.273,0,0,0,.272-0.192l0.608-1.537h4.354Zm-2.833-6.771h0.176l1.409,3.586h-3.041Zm6.623-1.729a0.2,0.2,0,0,0-.225.225v8.275a0.2,0.2,0,0,0,.225.224H346.7a0.2,0.2,0,0,0,.224-0.224v-2.1h2.241a1.658,1.658,0,0,0,.256-0.016l1.073,2.177a0.3,0.3,0,0,0,.288.16h1.568a0.148,0.148,0,0,0,.144-0.224l-1.376-2.641a3.081,3.081,0,0,0,1.536-2.673,3.253,3.253,0,0,0-3.425-3.186h-3.937Zm1.632,4.642v-2.881h2.305a1.4,1.4,0,0,1,1.569,1.425,1.427,1.427,0,0,1-1.569,1.456H346.92Zm7.711-4.642a0.2,0.2,0,0,0-.224.225v8.275a0.2,0.2,0,0,0,.224.224h1.409a0.2,0.2,0,0,0,.224-0.224v-2.849l0.945-.737,2.929,3.65a0.486,0.486,0,0,0,.4.16h1.921a0.132,0.132,0,0,0,.1-0.24l-4.066-4.658,3.826-3.585c0.112-.112.064-0.241-0.08-0.241h-1.953a0.64,0.64,0,0,0-.416.129l-3.6,3.553V318.5a0.2,0.2,0,0,0-.224-0.225h-1.409Zm8.688,0a0.2,0.2,0,0,0-.224.225v1.312a0.2,0.2,0,0,0,.224.224H366.1v6.739a0.2,0.2,0,0,0,.224.224h1.409a0.2,0.2,0,0,0,.224-0.224v-6.739h2.785a0.2,0.2,0,0,0,.224-0.224V318.5a0.2,0.2,0,0,0-.224-0.225h-7.427Z" transform="translate(-263.969 -318.281)"/>
</svg>
