<svg xmlns="http://www.w3.org/2000/svg" width="70" height="70" viewBox="0 0 70 70">
  <metadata><?xpacket begin="﻿" id="W5M0MpCehiHzreSzNTczkc9d"?>
<x:xmpmeta xmlns:x="adobe:ns:meta/" x:xmptk="Adobe XMP Core 5.6-c140 79.160451, 2017/05/06-01:08:21        ">
   <rdf:RDF xmlns:rdf="http://www.w3.org/1999/02/22-rdf-syntax-ns#">
      <rdf:Description rdf:about=""/>
   </rdf:RDF>
</x:xmpmeta>
                                                                                                    
                                                                                                    
                                                                                                    
                                                                                                    
                                                                                                    
                                                                                                    
                                                                                                    
                                                                                                    
                                                                                                    
                                                                                                    
                                                                                                    
                                                                                                    
                                                                                                    
                                                                                                    
                                                                                                    
                                                                                                    
                                                                                                    
                                                                                                    
                                                                                                    
                                                                                                    
                           
<?xpacket end="w"?></metadata>
<defs>
    <style>
      .cls-1 {
        fill-rule: evenodd;
        fill: #48c3cf;
      }
    </style>
  </defs>
  <path id="vk" class="cls-1" d="M35,70A35,35,0,1,1,70,35,35,35,0,0,1,35,70ZM56.663,23.88a4,4,0,0,0-.644-0.037l-7.289-.006a1.62,1.62,0,0,0-1.712,1.126c-0.428,1.032-.869,2.065-1.382,3.06a24.975,24.975,0,0,1-4.264,6.295,1.51,1.51,0,0,1-1.513.712c-0.837-.3-1.081-1.619-1.069-2.065l-0.006-8.08c-0.163-1.152-.428-1.667-1.62-1.893H29.591a2.442,2.442,0,0,0-2.055.983c-0.31.351-.405,0.58,0.235,0.7a2.468,2.468,0,0,1,2.15,2.219,23.751,23.751,0,0,1,.108,5.818,5.308,5.308,0,0,1-.386,1.66,1.034,1.034,0,0,1-1.735.49,6.858,6.858,0,0,1-1.68-1.773,38.6,38.6,0,0,1-4.447-7.914,1.919,1.919,0,0,0-1.82-1.308c-2.189-.035-4.374-0.038-6.561,0-1.316.022-1.709,0.637-1.173,1.783a77.308,77.308,0,0,0,8.492,14.537,20.868,20.868,0,0,0,6.452,5.8,17.725,17.725,0,0,0,9.589,1.98c1.585-.069,2.062-0.468,2.134-1.983a6.542,6.542,0,0,1,.706-3,1.427,1.427,0,0,1,2.232-.521,6.271,6.271,0,0,1,1.206,1.029c0.892,0.938,1.751,1.9,2.679,2.812a5.282,5.282,0,0,0,4.266,1.666l6.7,0a1.586,1.586,0,0,0,1.02-2.494,12.649,12.649,0,0,0-1.615-2.234,61.4,61.4,0,0,0-4.5-4.352c-1.376-1.289-1.464-2.037-.356-3.521,1.205-1.625,2.505-3.185,3.721-4.8a17.326,17.326,0,0,0,2.9-4.826C58.228,24.589,57.891,24.081,56.663,23.88Z"/>
</svg>
